<?xml version="1.0" standalone="no"?>
<!DOCTYPE svg PUBLIC "-//W3C//DTD SVG 20010904//EN"
 "http://www.w3.org/TR/2001/REC-SVG-20010904/DTD/svg10.dtd">
<svg version="1.0" xmlns="http://www.w3.org/2000/svg"
 width="1024.000000pt" height="1024.000000pt" viewBox="0 0 1024.000000 1024.000000"
 preserveAspectRatio="xMidYMid meet">
<metadata>
Created by potrace 1.16, written by Peter Selinger 2001-2019
</metadata>
<g transform="translate(0.000000,1024.000000) scale(0.100000,-0.100000)"
fill="#000000" stroke="none">
<path d="M3190 6787 c-63 -35 -212 -116 -330 -181 -333 -184 -701 -384 -1100
-601 -201 -109 -384 -208 -407 -221 l-42 -24 -3 -252 c-3 -232 -2 -252 14
-256 14 -3 16 -11 12 -31 -4 -14 -11 -30 -15 -35 -5 -6 -9 -199 -9 -431 l0
-421 163 -66 c251 -103 586 -243 1417 -593 300 -126 418 -175 1020 -426 118
-49 218 -89 223 -89 4 0 7 135 7 300 0 214 -3 300 -11 300 -11 0 -236 92 -459
187 -58 25 -247 103 -420 175 -538 222 -1057 440 -1328 559 -111 49 -207 89
-212 89 -6 0 -10 5 -10 10 0 10 820 18 1073 11 65 -2 174 0 243 4 l125 7 -3
245 -3 245 -813 -1 c-561 -1 -812 1 -807 9 3 5 10 10 14 10 8 0 733 389 1261
677 80 44 232 126 337 184 l193 104 0 288 c0 158 -3 287 -7 287 -5 0 -60 -29
-123 -63z"/>
<path d="M6489 6647 c-355 -280 -913 -718 -1023 -802 -50 -39 -140 -110 -201
-159 -60 -48 -115 -90 -122 -93 -7 -3 -97 62 -200 144 -103 82 -255 202 -338
267 -326 255 -375 294 -510 401 -77 61 -232 184 -345 274 l-205 162 -3 -1207
c-1 -665 1 -1211 5 -1215 10 -8 581 -299 588 -299 3 0 6 344 7 764 l3 764 120
-99 c66 -55 157 -130 201 -167 45 -37 146 -119 224 -182 79 -63 211 -170 293
-237 82 -68 152 -123 156 -123 4 0 52 37 107 83 54 45 155 127 224 182 69 55
194 157 279 225 85 69 211 171 280 226 l126 101 3 -252 2 -251 138 -32 c75
-17 337 -77 582 -132 245 -56 524 -119 620 -141 305 -70 571 -130 709 -160 74
-16 136 -30 138 -32 2 -2 -61 -30 -139 -62 -79 -32 -231 -95 -338 -140 -107
-45 -262 -110 -345 -145 -82 -34 -286 -120 -453 -191 -167 -71 -305 -129 -308
-129 -2 0 -4 170 -4 378 l0 378 -292 82 c-161 46 -296 82 -300 82 -9 0 -11
-1750 -2 -1750 6 0 219 90 524 220 74 32 293 124 485 205 519 219 950 400
1280 540 121 51 285 120 365 153 l145 61 0 357 0 357 -155 34 c-308 68 -1135
256 -1587 360 l-463 107 0 648 c0 356 -3 648 -7 647 -5 0 -123 -91 -264 -202z"/>
<path d="M6980 6542 l0 -288 153 -84 c83 -46 260 -142 392 -213 132 -71 274
-149 315 -172 41 -23 107 -59 145 -80 39 -21 169 -93 290 -160 387 -214 376
-208 388 -196 7 7 69 101 139 209 95 148 123 200 115 208 -7 6 -118 68 -247
139 -129 70 -278 152 -330 181 -52 28 -194 106 -315 172 -121 65 -287 156
-370 202 -205 113 -342 189 -390 214 -22 12 -93 52 -157 89 -65 37 -120 67
-123 67 -3 0 -5 -130 -5 -288z"/>
</g>
</svg>
